HIERARCHY
ROOT Hips
{
	OFFSET 0.000000 91.384300 0.000000
	CHANNELS 6 Xposition Yposition Zposition Xrotation Yrotation Zrotation
	JOINT LeftUpLeg
	{
		OFFSET 9.077000 -4.133000 1.997000
		CHANNELS 3 Xrotation Yrotation Zrotation
		JOINT LeftLeg
		{
			OFFSET -0.837700 -38.099998 -0.644600
			CHANNELS 3 Xrotation Yrotation Zrotation
			JOINT LeftFoot
			{
				OFFSET -2.286000 -39.700100 -5.944000
				CHANNELS 3 Xrotation Yrotation Zrotation
				JOINT LeftToeBase
				{
					OFFSET 0.765600 -9.713000 12.380000
					CHANNELS 3 Xrotation Yrotation Zrotation
					End Site
					{
						OFFSET 0 0 0
					}
				}
			}
		}
	}
	JOINT RightUpLeg
	{
		OFFSET -9.077000 -4.133000 1.997000
		CHANNELS 3 Xrotation Yrotation Zrotation
		JOINT RightLeg
		{
			OFFSET 0.838700 -38.100201 -0.635000
			CHANNELS 3 Xrotation Yrotation Zrotation
			JOINT RightFoot
			{
				OFFSET 2.286000 -39.700001 -5.944000
				CHANNELS 3 Xrotation Yrotation Zrotation
				JOINT RightToeBase
				{
					OFFSET -0.765600 -9.713000 12.380000
					CHANNELS 3 Xrotation Yrotation Zrotation
					End Site
					{
						OFFSET 0 0 0
					}
				}
			}
		}
	}
	JOINT Spine
	{
		OFFSET 0.000000 4.991000 -1.131000
		CHANNELS 3 Xrotation Yrotation Zrotation
		JOINT Spine1
		{
			OFFSET 0.000000 5.519000 1.053000
			CHANNELS 3 Xrotation Yrotation Zrotation
			JOINT Spine2
			{
				OFFSET 0.000000 5.886000 0.113000
				CHANNELS 3 Xrotation Yrotation Zrotation
				JOINT Spine3
				{
					OFFSET 0.000000 6.393000 -0.435800
					CHANNELS 3 Xrotation Yrotation Zrotation
					JOINT Spine4
					{
						OFFSET 0.000000 7.474000 -1.480000
						CHANNELS 3 Xrotation Yrotation Zrotation
						JOINT Spine5
						{
							OFFSET 0.000000 9.333000 -0.898600
							CHANNELS 3 Xrotation Yrotation Zrotation
							JOINT Spine6
							{
								OFFSET 0.000000 10.370000 1.550000
								CHANNELS 3 Xrotation Yrotation Zrotation
								JOINT LeftShoulder
								{
									OFFSET 1.212000 -7.475000 7.403000
									CHANNELS 3 Xrotation Yrotation Zrotation
									JOINT LeftArm
									{
										OFFSET 12.730000 3.193000 -3.212000
										CHANNELS 3 Xrotation Yrotation Zrotation
										JOINT LeftForeArm
										{
											OFFSET 28.700001 0.058700 0.134700
											CHANNELS 3 Xrotation Yrotation Zrotation
											JOINT LeftHand
											{
												OFFSET 23.809999 0.048800 0.111700
												CHANNELS 3 Xrotation Yrotation Zrotation
												JOINT LeftHandThumb1
												{
													OFFSET 0.342600 -0.877100 1.299200
													CHANNELS 3 Xrotation Yrotation Zrotation
													JOINT LeftHandThumb2
													{
														OFFSET 3.552400 0.035400 4.233400
														CHANNELS 3 Xrotation Yrotation Zrotation
														JOINT LeftHandThumb3
														{
															OFFSET 2.296600 0.022900 2.736900
															CHANNELS 3 Xrotation Yrotation Zrotation
															End Site
															{
																OFFSET 0 0 0
															}
														}
													}
												}
												JOINT LeftHandIndex1
												{
													OFFSET 8.341500 -0.231800 2.230700
													CHANNELS 3 Xrotation Yrotation Zrotation
													JOINT LeftHandIndex2
													{
														OFFSET 4.365700 0.000000 0.000000
														CHANNELS 3 Xrotation Yrotation Zrotation
														JOINT LeftHandIndex3
														{
															OFFSET 2.594000 0.000000 0.000000
															CHANNELS 3 Xrotation Yrotation Zrotation
															End Site
															{
																OFFSET 0 0 0
															}
														}
													}
												}
												JOINT LeftHandMiddle1
												{
													OFFSET 8.432300 0.000000 0.000000
													CHANNELS 3 Xrotation Yrotation Zrotation
													JOINT LeftHandMiddle2
													{
														OFFSET 4.555200 0.000000 0.000000
														CHANNELS 3 Xrotation Yrotation Zrotation
														JOINT LeftHandMiddle3
														{
															OFFSET 2.865300 0.000000 0.000000
															CHANNELS 3 Xrotation Yrotation Zrotation
															End Site
															{
																OFFSET 0 0 0
															}
														}
													}
												}
												JOINT LeftHandRing1
												{
													OFFSET 7.689400 -0.454700 -1.530700
													CHANNELS 3 Xrotation Yrotation Zrotation
													JOINT LeftHandRing2
													{
														OFFSET 4.269500 0.000000 0.000000
														CHANNELS 3 Xrotation Yrotation Zrotation
														JOINT LeftHandRing3
														{
															OFFSET 2.807300 0.000000 0.000000
															CHANNELS 3 Xrotation Yrotation Zrotation
															End Site
															{
																OFFSET 0 0 0
															}
														}
													}
												}
												JOINT LeftHandPinky1
												{
													OFFSET 6.579800 -1.192300 -2.874700
													CHANNELS 3 Xrotation Yrotation Zrotation
													JOINT LeftHandPinky2
													{
														OFFSET 3.404900 0.000000 0.000000
														CHANNELS 3 Xrotation Yrotation Zrotation
														JOINT LeftHandPinky3
														{
															OFFSET 2.167000 0.000000 0.000000
															CHANNELS 3 Xrotation Yrotation Zrotation
															End Site
															{
																OFFSET 0 0 0
															}
														}
													}
												}
											}
										}
									}
								}
								JOINT RightShoulder
								{
									OFFSET -1.212000 -7.475000 7.403000
									CHANNELS 3 Xrotation Yrotation Zrotation
									JOINT RightArm
									{
										OFFSET -12.730000 3.193000 -3.212000
										CHANNELS 3 Xrotation Yrotation Zrotation
										JOINT RightForeArm
										{
											OFFSET -28.700001 0.058900 0.134800
											CHANNELS 3 Xrotation Yrotation Zrotation
											JOINT RightHand
											{
												OFFSET -23.809999 0.048800 0.111800
												CHANNELS 3 Xrotation Yrotation Zrotation
												JOINT RightHandThumb1
												{
													OFFSET -0.331700 -0.854900 1.465200
													CHANNELS 3 Xrotation Yrotation Zrotation
													JOINT RightHandThumb2
													{
														OFFSET -3.394400 0.033800 4.045100
														CHANNELS 3 Xrotation Yrotation Zrotation
														JOINT RightHandThumb3
														{
															OFFSET -2.228600 0.022200 2.655900
															CHANNELS 3 Xrotation Yrotation Zrotation
															End Site
															{
																OFFSET 0 0 0
															}
														}
													}
												}
												JOINT RightHandIndex1
												{
													OFFSET -8.067200 -0.148300 2.256000
													CHANNELS 3 Xrotation Yrotation Zrotation
													JOINT RightHandIndex2
													{
														OFFSET -4.244400 0.000000 0.000000
														CHANNELS 3 Xrotation Yrotation Zrotation
														JOINT RightHandIndex3
														{
															OFFSET -2.518100 0.000000 0.000000
															CHANNELS 3 Xrotation Yrotation Zrotation
															End Site
															{
																OFFSET 0 0 0
															}
														}
													}
												}
												JOINT RightHandMiddle1
												{
													OFFSET -8.141100 0.000000 0.000000
													CHANNELS 3 Xrotation Yrotation Zrotation
													JOINT RightHandMiddle2
													{
														OFFSET -4.416900 0.000000 0.000000
														CHANNELS 3 Xrotation Yrotation Zrotation
														JOINT RightHandMiddle3
														{
															OFFSET -2.814700 0.000000 0.000000
															CHANNELS 3 Xrotation Yrotation Zrotation
															End Site
															{
																OFFSET 0 0 0
															}
														}
													}
												}
												JOINT RightHandRing1
												{
													OFFSET -7.423600 -0.524800 -1.560900
													CHANNELS 3 Xrotation Yrotation Zrotation
													JOINT RightHandRing2
													{
														OFFSET -4.128000 0.000000 0.000000
														CHANNELS 3 Xrotation Yrotation Zrotation
														JOINT RightHandRing3
														{
															OFFSET -2.724700 0.000000 0.000000
															CHANNELS 3 Xrotation Yrotation Zrotation
															End Site
															{
																OFFSET 0 0 0
															}
														}
													}
												}
												JOINT RightHandPinky1
												{
													OFFSET -6.307900 -1.287900 -2.847400
													CHANNELS 3 Xrotation Yrotation Zrotation
													JOINT RightHandPinky2
													{
														OFFSET -3.314800 0.000000 0.000000
														CHANNELS 3 Xrotation Yrotation Zrotation
														JOINT RightHandPinky3
														{
															OFFSET -2.102600 0.000000 0.000000
															CHANNELS 3 Xrotation Yrotation Zrotation
															End Site
															{
																OFFSET 0 0 0
															}
														}
													}
												}
											}
										}
									}
								}
								JOINT Neck
								{
									OFFSET 0.000000 4.703000 0.702900
									CHANNELS 3 Xrotation Yrotation Zrotation
									JOINT Neck1
									{
										OFFSET 0.000000 4.737000 0.414500
										CHANNELS 3 Xrotation Yrotation Zrotation
										JOINT Head
										{
											OFFSET 0.000000 4.747000 0.751800
											CHANNELS 3 Xrotation Yrotation Zrotation
											End Site
											{
												OFFSET 0 0 0
											}
										}
									}
								}
							}
						}
					}
				}
			}
		}
	}
}
MOTION
Frames: 6
Frame Time: 1.00000000
28.997345 91.453865 278.703156 -2.730388 13.967642 4.232854 5.095633 -10.075306 -9.102803 2.860242 -0.161657 -0.019679 -8.464218 -6.304650 20.904821 0.000000 -0.000000 0.000000 -28.925795 -9.632769 -9.497442 20.925911 1.181262 -0.054040 0.056109 13.681290 -17.349966 -0.000000 0.000000 -0.000000 3.539084 -2.352154 -2.753443 0.426292 -1.047199 0.329683 0.436378 -1.040843 0.336846 0.446609 -1.034332 0.343664 0.456978 -1.027728 0.350191 0.467491 -1.020925 0.356272 0.478042 -1.014022 0.362054 -0.739759 -3.562540 1.497299 -17.570721 -17.752117 -75.665710 1.697709 -33.679077 1.033678 0.860838 -4.754506 9.049487 13.732162 25.395786 -38.419121 -0.416634 6.745691 0.282194 -0.138788 10.331828 -0.058905 3.198510 6.085811 -34.707199 1.481979 2.827690 -50.230072 0.347378 1.443246 -22.776503 1.909048 2.973769 -34.603382 -0.254829 -0.233862 -40.882648 -0.114145 -0.128950 -24.079498 -10.871289 13.572605 -30.398767 0.494642 3.571855 -42.448315 -0.105217 1.512616 -17.544750 -20.591112 19.616594 -16.428255 -0.496532 3.848066 -34.057461 -0.590161 2.728934 -24.337246 3.743789 -0.911468 -2.368249 12.672887 16.023241 73.453270 -8.279172 11.707143 1.625182 -2.109379 -11.551498 -10.967286 6.937688 -25.961550 36.174362 -4.245406 -3.979949 -3.846351 0.137619 -9.710034 0.061578 1.953067 -1.916177 30.008242 0.199185 0.200724 37.295940 0.094261 0.064962 15.663879 1.592085 -2.195541 31.665527 0.065340 0.286281 30.097343 0.007948 0.264421 19.254824 -8.181482 -11.053618 30.008615 0.112223 -0.164302 33.530594 0.020425 -0.091233 14.580891 -14.112585 -22.969259 21.288336 -0.003762 0.206585 28.885723 -0.009189 0.179533 19.710581 0.709852 -0.272148 0.868462 0.709852 -0.272148 0.868462 4.430408 -2.075435 -5.445570 
29.308363 90.688049 284.354065 -2.311115 15.136450 5.190447 6.080626 -9.736207 -9.581612 5.527547 -0.313177 -0.030289 -10.993587 -7.477988 20.353380 -0.000000 0.000000 0.000000 -29.483801 -10.835551 -10.697025 10.774078 0.611455 0.025786 -5.120870 14.220613 -16.016079 -0.000000 0.000000 0.000000 3.220364 -2.666819 -3.488775 0.367401 -1.148340 0.259592 0.380402 -1.142478 0.266920 0.393493 -1.136517 0.273793 0.406718 -1.130299 0.280266 0.420087 -1.123936 0.286293 0.433546 -1.117418 0.291911 -0.992902 -4.213720 1.138465 -20.739481 -17.071285 -74.696358 2.988853 -36.887318 1.883294 0.990790 -5.469313 9.107570 13.671540 25.513758 -38.365269 -0.431051 6.652484 0.295922 -0.138886 10.161866 -0.059338 3.296579 6.120042 -35.167679 1.473445 2.830553 -50.059891 0.344678 1.443254 -22.690229 1.871513 2.879036 -34.993965 -0.253724 -0.235061 -40.612537 -0.113931 -0.129139 -23.984591 -10.926628 13.359920 -30.452927 0.481175 3.547441 -42.154800 -0.112956 1.504438 -17.434837 -20.678984 19.452562 -16.340582 -0.502648 3.815353 -33.788692 -0.590616 2.712158 -24.201265 3.900828 -1.783853 -2.192169 16.845095 14.205465 73.333412 -8.625817 12.272659 1.781755 -2.279505 -11.446600 -11.900446 7.160462 -25.947157 36.246716 -4.090806 -4.077022 -3.711985 0.137434 -9.742871 0.061889 1.990747 -1.878985 30.161602 0.197566 0.201144 37.592941 0.094151 0.065122 15.760646 1.597035 -2.203467 31.661631 0.063746 0.284678 30.415552 0.007728 0.262631 19.441473 -8.201033 -11.034833 29.952473 0.112903 -0.163511 33.901779 0.020514 -0.090513 14.746168 -14.138091 -22.915932 21.191772 -0.005003 0.206559 29.230015 -0.009340 0.178505 19.874651 0.817717 -0.321935 0.983470 0.817717 -0.321935 0.983470 4.132303 -2.327617 -5.246886 
29.375002 89.978828 290.785370 -1.636649 15.760319 5.225703 6.911281 -8.989184 -8.898183 9.002991 -0.510943 -0.034683 -13.254945 -8.530516 19.424610 0.000000 0.000000 -0.000000 -30.574068 -11.174232 -10.569052 6.161028 0.349103 0.032913 -9.744112 14.148005 -13.717273 -0.000000 0.000000 0.000000 2.712120 -2.790736 -3.707479 0.291682 -1.197519 0.239949 0.305754 -1.192697 0.246541 0.319914 -1.187776 0.252632 0.334163 -1.182616 0.258323 0.348539 -1.177356 0.263615 0.363067 -1.171895 0.268405 -1.102120 -4.611445 0.786587 -22.575922 -15.911282 -73.976585 4.654107 -39.990559 3.072751 1.200275 -6.147967 9.889711 13.921558 25.539761 -38.292721 -0.355559 6.813981 0.223667 -0.138987 9.991340 -0.059772 3.516538 5.953048 -35.979897 1.469911 2.831156 -49.990421 0.344324 1.445426 -22.656118 1.803508 2.683812 -35.991699 -0.252568 -0.236302 -40.331512 -0.114007 -0.129072 -24.018120 -10.858268 13.390120 -31.561468 0.488176 3.560193 -42.307430 -0.118292 1.503103 -17.403860 -20.703621 19.496105 -17.290131 -0.505449 3.800744 -33.669750 -0.591058 2.696331 -24.073603 3.778457 -2.269215 -2.292351 20.081671 13.216630 73.647430 -9.064241 11.806583 1.808552 -2.344465 -11.469077 -12.192904 7.214688 -25.945183 36.320675 -4.070630 -3.993416 -3.689797 0.136996 -9.543333 0.061641 1.991088 -1.802510 30.310419 0.196272 0.201257 37.800285 0.094169 0.065097 15.745426 1.582922 -2.176155 31.705282 0.062870 0.282910 30.591547 0.007689 0.260826 19.591286 -8.274803 -11.183396 29.865746 0.113319 -0.162896 34.182503 0.020653 -0.089854 14.933747 -14.168579 -23.022703 21.198715 -0.005684 0.206541 29.418798 -0.009226 0.177448 19.959278 0.929504 -0.349965 1.058082 0.929504 -0.349964 1.058082 3.861599 -2.458142 -5.223389 
29.226297 89.439346 298.378510 -1.079240 15.927226 4.331955 8.000355 -8.531374 -6.916860 13.068952 -0.742077 -0.024119 -14.629028 -8.934952 17.213387 0.000000 -0.000000 0.000000 -30.703470 -10.893396 -8.733649 6.896456 0.390937 0.034308 -10.351260 14.638572 -15.268554 0.000000 0.000000 0.000000 2.143060 -2.773258 -3.367738 0.216727 -1.224364 0.286836 0.229979 -1.220676 0.292264 0.243392 -1.216960 0.297192 0.256897 -1.213042 0.301792 0.270420 -1.209097 0.305992 0.284133 -1.205024 0.309765 -1.004136 -4.634377 0.610273 -22.884008 -14.733009 -73.760086 5.239398 -42.143833 3.581011 1.362278 -6.680625 10.442424 13.723831 25.333584 -38.269886 -0.381946 6.685834 0.248943 -0.138952 9.949594 -0.059888 3.569513 5.796933 -36.176918 1.472573 2.829403 -50.044960 0.355245 1.457720 -22.873497 1.764185 2.595935 -36.338066 -0.253328 -0.235488 -40.516060 -0.114445 -0.128683 -24.213062 -10.780605 13.431904 -31.949533 0.504076 3.589022 -42.653873 -0.115990 1.521586 -17.601479 -20.673290 19.571451 -17.600573 -0.498681 3.837446 -33.973118 -0.590552 2.718877 -24.257708 3.549192 -2.487408 -2.646757 21.859411 12.733009 74.286995 -8.813655 10.268296 1.535411 -2.367866 -12.126143 -11.709404 7.137473 -25.944351 36.348499 -4.091756 -3.702094 -3.692982 0.136465 -9.255078 0.061185 1.991621 -1.826744 30.364618 0.195740 0.200634 37.792786 0.094292 0.064917 15.636518 1.608630 -2.223750 31.636343 0.063226 0.280854 30.521435 0.008563 0.258847 19.552952 -8.347041 -11.326913 29.667227 0.112743 -0.162972 34.115562 0.020695 -0.089273 15.053054 -14.188398 -23.196798 20.965593 -0.005215 0.206553 29.288876 -0.008608 0.176414 19.881750 1.007506 -0.340080 1.038787 1.007506 -0.340080 1.038787 3.908336 -2.423883 -5.334461 
28.832468 89.145287 306.758759 -0.148628 15.740235 2.194619 8.215229 -8.587656 -3.881327 18.105885 -1.026416 0.011344 -12.431593 -8.967625 15.489709 0.000000 -0.000000 0.000000 -31.202440 -9.769862 -5.354829 11.380862 0.646150 0.030166 -3.430185 15.665897 -18.546219 0.000000 -0.000000 0.000000 1.297717 -2.626668 -2.376251 0.085563 -1.236307 0.446749 0.096519 -1.231280 0.450376 0.107529 -1.229198 0.453667 0.118632 -1.227077 0.456659 0.129728 -1.224957 0.459331 0.141019 -1.222897 0.461768 -0.618981 -4.274788 0.564587 -21.841623 -13.703628 -74.063965 5.490720 -43.403919 3.834286 1.423985 -6.879504 10.646016 13.505338 25.217445 -38.247646 -0.514790 6.680537 0.374942 -0.138603 10.204784 -0.059274 3.568230 5.747656 -36.206188 1.484515 2.838694 -50.258514 0.364627 1.468468 -23.056622 1.742731 2.553980 -36.478436 -0.254568 -0.234147 -40.818630 -0.114886 -0.128290 -24.409536 -10.737703 13.406585 -32.126202 0.518085 3.614124 -42.956863 -0.111205 1.531988 -17.799210 -20.671459 19.550184 -17.732344 -0.491446 3.875589 -34.289581 -0.589907 2.742202 -24.448023 3.424464 -2.616089 -2.980591 22.714569 12.586803 74.704796 -8.149963 9.218035 1.267534 -2.455179 -13.129350 -11.272398 7.260419 -26.037142 36.394691 -4.194870 -3.725308 -3.789147 0.136237 -9.243190 0.061402 2.090990 -1.856159 30.527597 0.195303 0.199891 37.753559 0.094359 0.064821 15.577694 1.663384 -2.299677 31.769844 0.063765 0.278827 30.402143 0.009950 0.256769 19.406111 -8.286434 -11.424597 29.741146 0.112029 -0.163141 34.001442 0.020392 -0.088814 14.943857 -14.097009 -23.368151 20.981026 -0.004392 0.206573 29.060490 -0.008049 0.175376 19.822920 1.115172 -0.309673 0.973332 1.115172 -0.309673 0.973332 4.161678 -2.230839 -5.635143 
28.607344 89.075188 315.674072 -0.212380 15.507517 0.388574 8.585916 -8.618984 -1.185374 23.616644 -1.332834 0.077716 -5.681849 -8.969748 13.792720 0.000000 -0.000000 -0.000000 -30.010996 -8.864420 -2.484272 16.017508 0.909077 0.007349 1.204806 14.155976 -18.666777 0.000000 -0.000000 0.000000 0.868261 -2.513908 -1.447218 0.005377 -1.247594 0.621375 0.014374 -1.245833 0.624129 0.023460 -1.244487 0.626675 0.032552 -1.243142 0.629012 0.041728 -1.241886 0.631048 0.051009 -1.240638 0.632885 -0.116418 -3.740630 1.115757 -19.371555 -12.570922 -75.319305 5.664369 -44.081547 4.000226 1.462812 -6.756373 11.155389 13.894179 25.265457 -38.270988 -0.392664 6.882115 0.258301 -0.138472 10.254655 -0.059166 3.799574 5.709344 -36.818516 1.513522 2.862713 -50.770870 0.366584 1.471794 -23.087070 1.744817 2.496978 -37.147709 -0.255461 -0.233172 -41.037670 -0.115087 -0.128109 -24.499735 -10.639033 13.397801 -32.768608 0.524153 3.626841 -43.146709 -0.114293 1.530864 -17.700146 -20.620703 19.671703 -18.402447 -0.489042 3.881939 -34.364616 -0.588880 2.748631 -24.523499 3.630712 -2.801900 -3.421188 22.329844 12.861200 75.014343 -7.823990 8.852510 1.163222 -2.590824 -14.073977 -11.128313 7.358818 -26.002932 36.371208 -4.188130 -3.870841 -3.792883 0.136214 -9.417153 0.062073 2.201709 -1.856718 30.597961 0.194863 0.199113 37.708862 0.094255 0.064972 15.669492 1.712794 -2.378242 31.780954 0.063872 0.276925 30.366440 0.011197 0.254685 19.289160 -8.171665 -11.504894 29.675358 0.111093 -0.163459 33.810806 0.019981 -0.088405 14.759272 -14.001962 -23.422983 20.850515 -0.003777 0.206585 28.889994 -0.007583 0.174331 19.794008 1.123277 -0.263495 0.876251 1.123277 -0.263495 0.876251 5.007444 -1.986922 -6.000957 
